<?xml version="1.0" standalone="no"?>
<!DOCTYPE svg PUBLIC "-//W3C//DTD SVG 20010904//EN"
 "http://www.w3.org/TR/2001/REC-SVG-20010904/DTD/svg10.dtd">
<svg version="1.0" xmlns="http://www.w3.org/2000/svg"
 width="1073.000000pt" height="327.000000pt" viewBox="0 0 1073.000000 327.000000"
 preserveAspectRatio="xMidYMid meet">

<g transform="translate(0.000000,327.000000) scale(0.100000,-0.100000)"
fill="#000000" stroke="none">
<path d="M2002 2329 c-194 -32 -393 -150 -507 -300 -59 -78 -127 -219 -151
-314 -24 -94 -24 -274 1 -370 20 -81 79 -213 125 -279 34 -51 36 -51 99 3 l35
28 -32 49 c-79 124 -115 245 -115 384 0 116 19 196 74 310 34 69 58 101 128
170 138 137 277 194 471 194 194 0 333 -57 471 -194 142 -141 202 -285 202
-480 0 -150 -34 -262 -121 -393 l-26 -39 40 -34 c21 -18 46 -33 55 -34 23 0
94 112 130 204 187 483 -119 1016 -629 1095 -81 13 -174 13 -250 0z"/>
<path d="M3705 2094 c-103 -36 -197 -164 -211 -286 l-7 -58 -48 0 -49 0 0 -95
0 -95 50 0 50 0 0 -275 0 -276 98 3 97 3 2 270 2 270 70 3 71 3 1 29 c0 17 1
44 1 60 0 17 -1 46 -1 65 l-1 35 -70 0 -70 0 0 46 c0 39 5 51 33 79 20 20 48
36 70 40 20 4 37 10 37 14 1 17 2 158 1 169 -1 16 -75 14 -126 -4z"/>
<path d="M7629 2079 c-81 -86 16 -228 119 -175 42 22 62 53 62 99 0 31 -7 46
-34 73 -28 28 -42 34 -76 34 -34 0 -47 -6 -71 -31z"/>
<path d="M8870 1560 l0 -550 95 0 95 0 0 550 0 550 -95 0 -95 0 0 -550z"/>
<path d="M5775 1906 l-100 -32 -3 -264 c-5 -428 14 -496 158 -571 63 -34 204
-34 267 -1 l42 22 -29 81 c-17 44 -30 82 -30 84 0 2 -21 -3 -46 -12 -58 -20
-109 -9 -136 28 -24 32 -33 118 -23 233 l7 86 99 0 99 0 0 95 0 95 -100 0 -99
0 -3 94 -3 94 -100 -32z"/>
<path d="M2016 1826 c-74 -31 -109 -64 -146 -140 -78 -155 -5 -345 156 -406
194 -73 398 69 396 276 -2 211 -212 351 -406 270z"/>
<path d="M4160 1744 c-86 -31 -143 -85 -191 -181 -62 -124 -47 -303 35 -414
115 -155 365 -186 499 -61 l27 26 0 -52 0 -52 95 0 95 0 0 370 0 370 -95 0
-95 0 0 -40 c0 -45 -8 -49 -36 -19 -10 12 -37 31 -59 42 -54 28 -210 35 -275
11z m262 -175 c93 -47 132 -181 82 -280 -19 -37 -76 -85 -120 -99 -48 -16
-126 -7 -170 20 -43 27 -82 93 -90 151 -9 69 11 127 61 176 67 64 151 75 237
32z"/>
<path d="M5103 1741 c-130 -48 -221 -162 -246 -305 -26 -155 72 -328 227 -397
61 -27 176 -36 247 -19 30 7 77 26 106 42 51 28 123 101 123 122 0 6 -33 30
-73 53 l-72 42 -30 -29 c-63 -61 -163 -77 -241 -40 -122 60 -141 243 -34 333
75 64 187 58 256 -12 l38 -38 75 42 c41 23 77 47 79 53 6 19 -93 108 -155 138
-77 38 -219 45 -300 15z"/>
<path d="M7361 1738 c-26 -13 -56 -39 -75 -66 l-31 -44 -3 61 -3 61 -94 0 -95
0 0 -370 0 -370 94 0 95 0 3 213 c3 181 6 217 21 245 23 43 91 91 139 98 l38
7 0 93 c0 91 -1 94 -22 94 -13 -1 -43 -11 -67 -22z"/>
<path d="M8154 1746 c-134 -42 -224 -172 -232 -336 -7 -138 39 -245 139 -325
114 -90 298 -95 398 -9 21 19 42 34 45 34 3 0 6 -22 6 -50 l0 -50 95 0 95 0 0
370 0 370 -95 0 -95 0 0 -40 c0 -45 -8 -50 -36 -19 -38 44 -112 69 -199 68
-44 0 -98 -6 -121 -13z m224 -162 c84 -35 126 -99 126 -194 0 -74 -17 -114
-66 -155 -43 -36 -73 -46 -137 -46 -144 0 -236 157 -172 297 42 92 156 137
249 98z"/>
<path d="M6465 1736 c-160 -51 -265 -192 -265 -357 0 -144 81 -268 220 -337
48 -24 67 -27 150 -27 86 0 101 3 154 30 111 56 181 147 206 269 38 183 -81
373 -262 422 -65 17 -149 17 -203 0z m185 -178 c172 -88 137 -342 -51 -372
-135 -22 -255 111 -219 243 21 80 110 150 190 151 20 0 56 -10 80 -22z"/>
<path d="M7610 1380 l0 -370 95 0 95 0 0 370 0 370 -95 0 -95 0 0 -370z"/>
<path d="M2023 1069 c-126 -15 -306 -89 -371 -153 l-23 -22 46 -33 c59 -42
173 -95 255 -117 101 -27 311 -25 414 4 84 24 210 86 260 127 l30 24 -25 20
c-45 38 -175 100 -259 124 -99 28 -225 38 -327 26z"/>
</g>
</svg>
